<svg width="18" height="18" viewBox="0 0 18 18" fill="none" xmlns="http://www.w3.org/2000/svg">
<path d="M12.977 11.472H12.187L11.907 11.202C12.532 10.4759 12.9887 9.62073 13.2446 8.69757C13.5004 7.77441 13.5491 6.80611 13.387 5.86196C12.917 3.08196 10.597 0.86196 7.79703 0.52196C6.81264 0.397425 5.81281 0.499731 4.87405 0.821049C3.93529 1.14237 3.08247 1.67418 2.38086 2.37579C1.67924 3.0774 1.14743 3.93022 0.826115 4.86898C0.504797 5.80775 0.402491 6.80758 0.527026 7.79196C0.867026 10.592 3.08703 12.912 5.86703 13.382C6.81118 13.544 7.77948 13.4954 8.70264 13.2395C9.6258 12.9837 10.481 12.5269 11.207 11.902L11.477 12.182V12.972L15.727 17.222C16.137 17.632 16.807 17.632 17.217 17.222C17.627 16.812 17.627 16.142 17.217 15.732L12.977 11.472ZM6.97703 11.472C4.48703 11.472 2.47703 9.46196 2.47703 6.97196C2.47703 4.48196 4.48703 2.47196 6.97703 2.47196C9.46703 2.47196 11.477 4.48196 11.477 6.97196C11.477 9.46196 9.46703 11.472 6.97703 11.472Z" fill="#9E9E9E"/>
</svg>
